<svg width="24" height="31" viewBox="0 0 24 31" fill="none" xmlns="http://www.w3.org/2000/svg">
<path d="M11.182 9.97931C14.9192 9.45315 17.9478 11.6901 18.2972 11.9556C19.0224 12.4878 19.6622 13.1276 20.1944 13.8528C20.5462 14.337 21.1014 15.2134 22.1707 19.4654C22.6008 21.1762 22.8163 22.0477 22.8816 22.8256C23.0075 24.3282 23.1883 25.7695 22.487 27.2915C22.2062 27.8991 21.8737 28.6198 21.1031 29.1096C19.8926 29.8778 18.4215 29.5599 17.0682 29.271C16.1208 29.066 15.9666 28.9038 14.4204 28.4019C12.5604 27.7975 11.8091 27.7159 10.9424 27.4529C7.6176 26.4458 5.5719 23.6786 5.329 23.3421C3.2946 20.5104 3.33414 17.6029 3.59318 16.6974C3.68417 16.3906 3.81724 16.0978 3.9886 15.8275C4.39209 15.2255 4.87628 15.0011 5.37177 14.6816C6.19812 14.1441 6.69038 13.5623 7.34807 12.7844C8.28497 11.6772 8.15505 11.3794 8.81112 10.8476C9.58825 10.2149 10.4469 10.0802 11.182 9.97931Z" stroke-miterlimit="10"/>
<path d="M10.1321 9.91882C10.1199 9.91186 10.1065 9.90721 10.0926 9.9051C10.0845 9.9051 10.0845 9.9051 10.0861 9.9051C10.3282 9.87605 10.6115 9.8244 10.8648 9.93738C11.4394 10.1859 11.696 10.8025 11.9083 11.3343C12.3804 12.598 12.6007 14.0885 11.9196 15.3191C11.5161 16.0309 10.8358 16.503 10.2653 17.0622C9.89728 17.4165 9.57126 17.8514 9.51961 18.3711C9.47119 19.1596 9.89889 19.9133 10.467 20.4362C9.86177 19.931 9.38323 19.1741 9.41067 18.3623C9.44295 17.8103 9.77704 17.3301 10.1458 16.9452C10.672 16.3803 11.3337 15.8727 11.6791 15.1908C12.3473 13.8496 11.8873 12.0622 11.1392 10.8436C10.877 10.4676 10.655 10.3271 10.2289 10.449C10.1022 10.4811 9.96811 10.4674 9.85047 10.4103L10.1297 9.91882H10.1321Z"/>
<path d="M11.9785 11.887C12.2521 12.2954 12.29 12.8498 12.5353 13.2516C12.7129 13.5349 12.8896 13.8657 13.1583 14.0675C13.3271 14.2156 13.5126 14.3434 13.7111 14.4484C13.9387 14.5638 14.209 14.6372 14.4212 14.8293C14.8845 15.2594 15.0547 15.9171 14.999 16.5239C14.9918 16.5885 14.9837 16.6531 14.9732 16.7168C14.8993 16.4782 14.8109 16.2442 14.7085 16.0163C14.5943 15.7547 14.4298 15.5181 14.2243 15.3199C14.0186 15.1158 13.7321 15.0883 13.465 14.9519C13.2758 14.8599 13.1004 14.742 12.9437 14.6017C12.6298 14.3367 12.3789 14.0051 12.2093 13.6309C12.06 13.3244 11.9864 12.9865 11.9947 12.6456C11.9947 12.4245 11.9995 12.1098 11.9785 11.8886V11.887Z" />
<path d="M17.9671 29.1775C15.0216 28.9927 12.6564 26.9316 10.601 25.0005C8.9499 23.4172 7.54252 21.4442 7.05026 19.1693C6.80252 18.0484 7.1697 16.8984 7.72006 15.9365C8.20424 15.119 8.79818 14.3766 9.09919 13.4671C9.25807 13.0223 9.37241 12.5627 9.44054 12.0953C9.43637 12.5753 9.37543 13.0531 9.25897 13.5188C9.13814 13.9881 8.96489 14.4423 8.7425 14.8729C8.52058 15.2982 8.268 15.6936 8.06222 16.1213C7.6095 17.0259 7.31334 18.0581 7.55543 19.0571C7.75021 19.8417 8.04531 20.5979 8.43343 21.307C8.77894 21.9168 9.16079 22.5054 9.57692 23.0694C10.2887 23.991 11.1328 24.8238 11.9825 25.6211C13.6974 27.202 15.6091 28.7627 17.9687 29.1807L17.9671 29.1775Z" />
<path d="M7.39886 19.3354C7.50297 19.5267 7.54977 19.7575 7.63692 19.952C7.8193 20.3385 8.07996 20.6944 8.31882 21.0527C8.71182 21.6717 9.27752 22.1728 9.8771 22.5916C9.95738 22.6459 10.0425 22.6926 10.1313 22.7312C10.9058 23.0744 11.7351 23.2774 12.5805 23.3308C13.7821 23.3413 14.794 24.045 15.4049 25.0416C14.786 24.4711 14.0331 23.953 13.1898 23.8513C12.7693 23.7997 12.311 23.8513 11.876 23.7924C11.115 23.6915 10.3589 23.5059 9.68585 23.1234C9.16762 22.776 8.70622 22.3505 8.31802 21.8621C8.17365 21.6793 8.04971 21.4812 7.94842 21.2714C7.74909 20.8679 7.54493 20.4596 7.45374 20.0077C7.4142 19.7785 7.43114 19.5638 7.39886 19.3363V19.3354Z" />
<path d="M15.6543 11.954C16.9455 13.0692 18.1785 14.3749 18.7579 16.0155C18.8686 16.3516 18.9496 16.6966 19 17.0468C19.0339 17.2478 19.0493 17.4995 19.0638 17.7029C19.084 18.1702 19.0694 18.6576 19.0565 19.1184C19.0468 19.4581 19.0299 19.8148 18.992 20.1513C18.9298 20.7517 18.7789 21.5708 18.6805 22.1687C18.5949 22.7336 18.4247 23.5906 18.4174 24.1475C18.4093 25.1449 18.8209 26.0883 19.4197 26.8912C18.6668 26.1948 18.1245 25.2046 18.0478 24.1571C18.0066 22.4528 18.4763 20.7961 18.4924 19.0982C18.5328 18.0854 18.5627 17.1219 18.2851 16.1616C17.8057 14.5557 16.701 13.2322 15.6551 11.9507L15.6543 11.954Z" />
<path d="M15.8625 20.3434C15.963 19.5359 16.2628 18.766 16.7348 18.1032C16.9148 17.8522 17.1512 17.6142 17.3352 17.3834C18.0381 16.4465 17.9808 15.5886 17.5047 14.5589C17.3796 14.2781 17.2303 14.0021 17.0778 13.7229C17.3207 13.9323 17.5401 14.1674 17.7323 14.4242C18.6764 15.6661 18.5602 17.0113 17.4442 18.0935C16.78 18.752 16.3297 19.5162 15.8625 20.3434Z" fill="#311F2D"/>
<path d="M18.9751 19.0684C19.1292 19.4985 18.9839 20.002 18.9912 20.433C18.9871 20.626 19.0211 20.818 19.0913 20.9979C19.1978 21.2319 19.4431 21.5256 19.6182 21.7524C19.7546 21.9323 19.9007 22.0324 20.0734 22.2003C20.2495 22.3791 20.3869 22.5922 20.4772 22.8264C20.5674 23.0606 20.6085 23.3109 20.5979 23.5616C20.5957 23.6795 20.5833 23.7969 20.5608 23.9127C20.4107 23.4704 20.238 23.0613 19.9612 22.7716C19.8095 22.6062 19.6602 22.5222 19.4697 22.3786C19.1903 22.1394 18.952 21.8558 18.7644 21.5393C18.5584 21.1955 18.4893 20.7867 18.5708 20.3942C18.6555 19.9157 18.9073 19.5461 18.9743 19.0724L18.9751 19.0684Z" />
<path d="M7.34804 12.786C7.60231 12.4905 7.83352 12.1759 8.03962 11.845C8.12112 11.7134 8.17034 11.5643 8.18327 11.4101C8.26396 10.4683 8.25428 10.2375 8.3721 9.38454C8.50976 8.52121 8.58902 7.64958 8.60935 6.77557C8.62711 5.59738 8.53915 5.25926 8.29302 5.11561C7.94682 4.91548 7.21892 4.81219 6.6726 4.99618C6.49385 5.09029 6.35388 5.24426 6.27718 5.43114C6.11578 5.79025 6.24248 7.88679 6.03992 9.42328C5.9794 9.88649 5.86723 11.3382 5.63159 14.4112C6.31188 13.9214 6.76056 13.4808 7.34804 12.786Z" stroke-miterlimit="10"/>
<path d="M5.33223 23.3389C5.17648 23.1226 5.03445 22.9063 4.90211 22.6893C4.84965 23.1509 4.78025 23.7601 4.69633 24.4832C4.42115 26.842 4.49378 27.5586 4.81495 27.7248C5.00137 27.8209 5.20634 27.7854 5.56545 27.7248C5.90276 27.6675 6.54028 27.5933 6.87033 27.1317C6.97623 26.9785 7.04401 26.8023 7.06805 26.6177C7.13422 26.173 7.17457 25.7421 7.19797 25.3313C6.50252 24.7401 5.87658 24.0716 5.33223 23.3389V23.3389Z" stroke="#311F2D" stroke-miterlimit="10"/>
<path d="M8.37209 9.38455C8.25427 10.2375 8.26234 10.4683 8.18326 11.4101C8.17121 11.5496 8.12968 11.6849 8.0614 11.8071V11.8071C8.3035 11.4149 8.40921 11.1752 8.81028 10.8484C9.5874 10.2141 10.446 10.0818 11.1812 9.97849C11.4104 9.94621 11.6363 9.92415 11.8591 9.91232C11.983 9.24895 12.2682 8.62624 12.6894 8.09903C12.8686 7.87792 13.7772 6.74976 15.1201 6.64647C15.9682 6.58191 16.3991 6.96926 17.0471 6.61741C17.1472 6.56254 17.7403 5.43922 17.675 5.28267C17.3264 4.4539 15.9553 4.0722 15.2088 3.97859C14.2794 3.84074 13.3318 3.89123 12.4223 4.12707C10.6115 4.60561 9.34531 6.08158 8.59885 7.12339C8.56523 7.88073 8.48953 8.63562 8.37209 9.38455V9.38455Z" stroke-miterlimit="10"/>
<path d="M10.7245 4.93326C11.2387 4.56624 11.8138 4.29305 12.4232 4.12628C12.5555 4.09158 12.6838 4.06172 12.8097 4.03671C12.8625 4.02615 12.9098 3.99743 12.9436 3.95556C12.9774 3.91369 12.9954 3.86131 12.9945 3.80752C12.9816 3.007 12.9138 1.52619 12.591 1.24052C12.148 0.845903 11.8882 1.00326 11.3991 1.24052C10.9101 1.47777 11.019 1.75456 11.019 1.75456C11.019 1.75456 11.019 2.50586 10.8318 4.16582C10.8052 4.44907 10.764 4.70327 10.7245 4.93326Z" stroke="#311F2D" stroke-miterlimit="10"/>
<path d="M12.9969 4.00366L13.3028 3.95686C13.7821 3.881 14.7715 3.92377 15.2097 3.97946C15.3949 4.00354 15.5786 4.03775 15.76 4.08194L16.1587 2.86259C16.1587 2.86259 16.1587 2.38889 15.6543 2.07256C15.2436 1.81432 13.4626 1.79334 12.8234 1.79415C12.9663 2.45265 12.9929 3.48397 12.9969 4.00366Z" stroke="#311F2D" stroke-miterlimit="10"/>
<path d="M14.3599 8.7519C14.7061 8.35406 14.9482 8.26771 15.3065 8.23704C15.527 8.21744 15.7487 8.21312 15.9698 8.22413C15.9898 8.22641 16.01 8.22149 16.0267 8.21026C16.0434 8.19902 16.0556 8.18219 16.061 8.1628C16.1118 7.92636 16.1595 7.67861 16.2022 7.42926C16.241 7.20007 16.2724 6.97815 16.3015 6.75946C15.9666 6.72476 15.6164 6.61098 15.1249 6.6481C13.7821 6.75139 12.8734 7.87955 12.6943 8.10066C12.273 8.62787 11.9878 9.25058 11.8639 9.91395V9.91395C12.5231 9.87873 13.1843 9.91852 13.8345 10.0326C13.8612 9.99203 13.8808 9.94729 13.8926 9.90023C14.0242 9.26837 14.2308 8.90119 14.3599 8.7519Z" stroke-miterlimit="10"/>
<path d="M3.9886 15.8292C4.39209 15.2272 4.87628 15.0028 5.37176 14.6833C5.63883 14.5102 5.89192 14.3165 6.12871 14.1039L6.11257 14.0417C5.96328 14.1652 5.80511 14.2838 5.62838 14.4121C5.65501 14.0667 5.68003 13.7431 5.70343 13.4381C5.11656 13.7688 4.49629 14.0363 3.85303 14.2362C3.26191 14.4146 2.65702 14.5436 2.04458 14.622C1.78473 14.6591 1.54587 14.6857 1.33363 14.7026C1.27784 14.7079 1.22398 14.7258 1.17616 14.755C1.12834 14.7842 1.08782 14.824 1.0577 14.8712C1.02757 14.9184 1.00864 14.972 1.00234 15.0276C0.996032 15.0833 1.00253 15.1397 1.02133 15.1925L1.36349 16.1439C1.3712 16.1665 1.38632 16.1858 1.40639 16.1987C1.42647 16.2116 1.45031 16.2173 1.47405 16.2149L3.89499 15.9841C3.95067 15.8905 3.9886 15.8292 3.9886 15.8292Z" stroke-miterlimit="10"/>
<path d="M18.0752 11.7951C18.5736 11.7665 19.0658 11.6704 19.5383 11.5094L19.4197 10.4523C19.2621 10.2371 19.0309 10.0875 18.77 10.0318C18.3327 9.93822 18.2536 10.1359 17.6806 10.4127C17.1077 10.6895 14.9514 10.2941 14.9514 10.2941C16.0646 10.6283 17.1187 11.1348 18.0752 11.7951Z" stroke-miterlimit="10"/>
<path d="M19.3503 11.5724C19.2954 11.5893 19.2406 11.6046 19.1889 11.6192L19.1639 11.6264C19.109 11.6402 19.0533 11.6531 18.9985 11.6652L18.9734 11.6708C18.9178 11.6829 18.8613 11.6942 18.8056 11.7047H18.787C18.7289 11.7152 18.6708 11.7249 18.6127 11.733C18.4279 11.7604 18.2488 11.779 18.0817 11.7911C18.1882 11.8653 18.2641 11.9218 18.3036 11.9525C18.8014 12.321 19.2609 12.7384 19.6755 13.1984C20.025 13.0555 20.3817 12.9305 20.744 12.824C20.8845 12.7863 21.0146 12.7168 21.1241 12.621C21.2336 12.5252 21.3197 12.4055 21.3758 12.2712L21.0199 11.2036C21.0199 11.2036 20.5858 11.1229 19.5383 11.5102C19.4818 11.5304 19.4253 11.5498 19.3681 11.5675L19.3503 11.5724Z" stroke-miterlimit="10"/>
<path d="M2.48277 13.4381C2.6603 13.5995 3.42613 13.9497 4.24844 13.9965C4.41388 14.0069 4.57951 13.9793 4.73263 13.9158C4.98521 13.8093 5.25717 13.6802 5.53961 13.5269C5.59529 13.4825 5.65017 13.4357 5.70101 13.3889C5.7462 12.7998 5.78574 12.2841 5.82125 11.8354L5.67438 11.6401C5.67438 11.6401 5.45326 12.0509 4.51636 12.201C3.68759 12.3341 2.94275 12.0396 2.78135 11.971C2.77253 11.967 2.76252 11.9665 2.75337 11.9697C2.74422 11.9728 2.73662 11.9794 2.73212 11.9879L2.19145 12.9612C2.18018 12.9807 2.17426 13.0028 2.17426 13.0253C2.17426 13.0478 2.18018 13.07 2.19145 13.0895C2.27 13.22 2.36827 13.3376 2.48277 13.4381V13.4381Z" stroke-miterlimit="10"/>
<path d="M11.182 9.97931C14.9192 9.45315 17.9478 11.6901 18.2972 11.9556C19.0224 12.4878 19.6622 13.1276 20.1944 13.8528C20.5462 14.337 21.1014 15.2134 22.1707 19.4654C22.6008 21.1762 22.8163 22.0477 22.8816 22.8256C23.0075 24.3282 23.1883 25.7695 22.487 27.2915C22.207 27.8991 21.8737 28.6198 21.1031 29.1096C19.8926 29.8778 18.4215 29.5599 17.0682 29.271C16.1208 29.066 15.9666 28.9038 14.4204 28.4019C12.5604 27.7975 11.8091 27.7159 10.9424 27.4529C7.6176 26.4458 5.5719 23.6786 5.329 23.3421C3.2946 20.5104 3.33414 17.6029 3.59318 16.6974C3.68417 16.3906 3.81724 16.0978 3.9886 15.8275C4.39209 15.2255 4.87628 15.0011 5.37177 14.6816C6.19812 14.1441 6.69038 13.5623 7.34807 12.7844C8.28497 11.6772 8.15505 11.3794 8.81112 10.8476C9.58825 10.2149 10.4469 10.0802 11.182 9.97931Z" stroke-miterlimit="10"/>
</svg>
