<svg width="30" height="30" viewBox="0 0 30 30" fill="none" xmlns="http://www.w3.org/2000/svg">
<path d="M29.5 15C29.5 23.0081 23.0081 29.5 15 29.5C6.99187 29.5 0.5 23.0081 0.5 15C0.5 6.99187 6.99187 0.5 15 0.5C23.0081 0.5 29.5 6.99187 29.5 15Z" stroke="#311F2D"/>
<path d="M22.4267 18.5441L22.4267 18.5457C22.4706 20.3295 21.3176 21.6481 19.9291 22.2079C19.412 22.4175 18.8636 22.5403 18.2934 22.5403C17.6392 22.5403 16.9831 22.542 16.3259 22.5437C14.7877 22.5477 13.2432 22.5517 11.7008 22.534C10.3143 22.5197 9.1245 21.9617 8.27619 20.8146C7.81949 20.2028 7.59188 19.4928 7.59188 18.728C7.59188 17.942 7.59258 17.1557 7.59328 16.3697C7.59468 14.799 7.59608 13.2292 7.59189 11.6643C7.59189 11.6642 7.59189 11.664 7.59189 11.6638L8.09188 11.6625C8.08559 10.3275 8.71531 9.37029 9.84881 8.71538L22.4267 18.5441ZM22.4267 18.5441C22.4051 17.7639 22.4104 16.989 22.4158 16.2042C22.4182 15.8515 22.4206 15.4967 22.4206 15.1386V15.1315V15.1245V15.1174V15.1104V15.1033V15.0963V15.0892V15.0822V15.0751V15.0681V15.061V15.054V15.0469V15.0399V15.0328V15.0258V15.0187V15.0117V15.0046V14.9975V14.9905V14.9834V14.9764V14.9693V14.9623V14.9552V14.9482V14.9411V14.9341V14.927V14.9199V14.9129V14.9058V14.8988V14.8917V14.8847V14.8776V14.8706V14.8635V14.8564V14.8494V14.8423V14.8353V14.8282V14.8211V14.8141V14.807V14.8V14.7929V14.7858V14.7788V14.7717V14.7647V14.7576V14.7505V14.7435V14.7364V14.7294V14.7223V14.7152V14.7082V14.7011V14.694V14.687V14.6799V14.6728V14.6658V14.6587V14.6517V14.6446V14.6375V14.6305V14.6234V14.6163V14.6093V14.6022V14.5951V14.5881V14.581V14.5739V14.5669V14.5598V14.5527V14.5457V14.5386V14.5315V14.5245V14.5174V14.5103V14.5033V14.4962V14.4891V14.482V14.475V14.4679V14.4608V14.4538V14.4467V14.4396V14.4326V14.4255V14.4184V14.4113V14.4043V14.3972V14.3901V14.3831V14.376V14.3689V14.3618V14.3548V14.3477V14.3406V14.3335V14.3265V14.3194V14.3123V14.3053V14.2982V14.2911V14.284V14.277V14.2699V14.2628V14.2557V14.2487V14.2416V14.2345V14.2274V14.2204V14.2133V14.2062V14.1991V14.1921V14.185V14.1779V14.1708V14.1637V14.1567V14.1496V14.1425V14.1354V14.1284V14.1213V14.1142V14.1071V14.1001V14.093V14.0859V14.0788V14.0717V14.0647V14.0576V14.0505V14.0434V14.0364V14.0293V14.0222V14.0151V14.008V14.001V13.9939V13.9868V13.9797V13.9726V13.9656V13.9585V13.9514V13.9443V13.9372V13.9302V13.9231V13.916V13.9089V13.9018V13.8948V13.8877V13.8806V13.8735V13.8664V13.8594V13.8523V13.8452V13.8381V13.831V13.8239V13.8169V13.8098V13.8027V13.7956V13.7885V13.7815V13.7744V13.7673V13.7602V13.7531V13.746V13.739V13.7319V13.7248V13.7177V13.7106V13.7035V13.6965V13.6894V13.6823V13.6752V13.6681V13.661V13.654V13.6469V13.6398V13.6327V13.6256V13.6185V13.6115V13.6044V13.5973V13.5902V13.5831V13.576V13.569V13.5619V13.5548V13.5477V13.5406V13.5335V13.5265V13.5194V13.5123V13.5052V13.4981V13.491V13.484V13.4769V13.4698V13.4627V13.4556V13.4485V13.4415V13.4344V13.4273V13.4202V13.4131V13.406V13.3989V13.3919V13.3848V13.3777V13.3706V13.3635V13.3564V13.3494V13.3423V13.3352V13.3281V13.321V13.3139V13.3068V13.2998V13.2927V13.2856V13.2785V13.2714V13.2643V13.2573V13.2502V13.2431V13.236V13.2289V13.2218V13.2148V13.2077V13.2006V13.1935V13.1864V13.1793V13.1722V13.1652V13.1581V13.151V13.1439V13.1368V13.1297V13.1227V13.1156V13.1085V13.1014V13.0943V13.0872V13.0802V13.0731V13.066V13.0589V13.0518V13.0447V13.0377V13.0306V13.0235V13.0164V13.0093V13.0022V12.9952V12.9881V12.981V12.9739V12.9668V12.9597V12.9527V12.9456V12.9385V12.9314V12.9243V12.9172V12.9102V12.9031V12.896V12.8889V12.8818V12.8747V12.8677V12.8606V12.8535V12.8464V12.8393V12.8323V12.8252V12.8181V12.811V12.8039V12.7969V12.7898V12.7827V12.7756V12.7685V12.7614V12.7544V12.7473V12.7402V12.7331V12.726V12.719V12.7119V12.7048V12.6977V12.6906V12.6836V12.6765V12.6694V12.6623V12.6552V12.6482V12.6411V12.634V12.6269V12.6199V12.6128V12.6057V12.5986V12.5915V12.5845V12.5774V12.5703V12.5632V12.5561V12.5491V12.542V12.5349V12.5278V12.5208V12.5137V12.5066V12.4995V12.4925V12.4854V12.4783V12.4712V12.4641V12.4571V12.45V12.4429V12.4358V12.4288V12.4217V12.4146V12.4075V12.4005V12.3934V12.3863V12.3792V12.3722V12.3651V12.358V12.3509V12.3439V12.3368V12.3297V12.3227V12.3156V12.3085V12.3014V12.2944V12.2873V12.2802V12.2731V12.2661V12.259V12.2519V12.2449V12.2378V12.2307V12.2236V12.2166V12.2095V12.2024V12.1954V12.1883V12.1812V12.1742V12.1671V12.16V12.153V12.1459V12.1388V12.1317V12.1247V12.1176V12.1105V12.1035V12.0964V12.0893V12.0823V12.0752V12.0681V12.0611V12.054V12.0469V12.0399V12.0328V12.0257V12.0187V12.0116V12.0045V11.9975V11.9904V11.9834V11.9763V11.9692V11.9622V11.9551V11.948V11.941V11.9339V11.9268V11.9198V11.9127V11.9057V11.8986V11.8915V11.8845V11.8774V11.8704V11.8633V11.8562V11.8492V11.8421V11.8351V11.828V11.8209V11.8139V11.8068V11.7998V11.7927V11.7856V11.7786V11.7715V11.7645V11.7574V11.7504V11.7433V11.7363V11.7292V11.7221V11.7151V11.708V11.701V11.6939V11.6869V11.6798V11.6728V11.6657V11.6587V11.6516V11.6445V11.6375V11.6304V11.6234V11.6163V11.6093V11.6022V11.5952V11.5881V11.5811V11.574V11.567V11.5599V11.5529V11.5458V11.5388V11.5317V11.5247V11.5176C22.4206 10.758 22.1924 10.0549 21.7429 9.45031C20.8956 8.3044 19.7066 7.73851 18.318 7.72423C16.7848 7.70656 15.2495 7.71054 13.7183 7.71451C13.0635 7.7162 12.4096 7.7179 11.7569 7.7179C10.997 7.7179 10.2668 7.89461 9.59821 8.28272L22.4267 18.5441ZM20.2616 22.2951L20.2611 22.2954C19.649 22.6126 18.9804 22.7557 18.2682 22.7557C17.5997 22.7557 16.9331 22.7591 16.2678 22.7625C14.7217 22.7704 13.1825 22.7783 11.6423 22.7432L11.6416 22.7432C10.0299 22.7089 8.75837 22.0128 7.89311 20.6303C7.54704 20.0695 7.37611 19.4553 7.37022 18.7951C7.37022 17.986 7.36882 17.1772 7.36742 16.3686C7.36462 14.7515 7.36183 13.1355 7.37021 11.5208C7.3815 10.0559 8.08182 8.97492 9.33973 8.1819C10.0706 7.72682 10.884 7.51484 11.7648 7.50883C12.4843 7.50883 13.202 7.50743 13.9191 7.50603C15.3521 7.50323 16.7828 7.50044 18.2208 7.50882C19.7362 7.52041 20.9666 8.10244 21.8882 9.30821C22.3794 9.95411 22.6234 10.703 22.6234 11.5302L22.6234 11.5329C22.6297 12.7215 22.6297 13.923 22.6297 15.126V15.1327V15.1394V15.1461V15.1528V15.1595V15.1663V15.173V15.1797V15.1864V15.1931V15.1998V15.2066V15.2133V15.22V15.2267V15.2334V15.2401V15.2469V15.2536V15.2603V15.267V15.2737V15.2805V15.2872V15.2939V15.3006V15.3073V15.314V15.3208V15.3275V15.3342V15.3409V15.3476V15.3544V15.3611V15.3678V15.3745V15.3812V15.388V15.3947V15.4014V15.4081V15.4148V15.4216V15.4283V15.435V15.4417V15.4485V15.4552V15.4619V15.4686V15.4753V15.4821V15.4888V15.4955V15.5022V15.509V15.5157V15.5224V15.5291V15.5358V15.5426V15.5493V15.556V15.5627V15.5695V15.5762V15.5829V15.5896V15.5964V15.6031V15.6098V15.6165V15.6233V15.63V15.6367V15.6434V15.6502V15.6569V15.6636V15.6703V15.6771V15.6838V15.6905V15.6972V15.704V15.7107V15.7174V15.7241V15.7309V15.7376V15.7443V15.751V15.7578V15.7645V15.7712V15.7779V15.7847V15.7914V15.7981V15.8049V15.8116V15.8183V15.825V15.8318V15.8385V15.8452V15.8519V15.8587V15.8654V15.8721V15.8789V15.8856V15.8923V15.899V15.9058V15.9125V15.9192V15.926V15.9327V15.9394V15.9461V15.9529V15.9596V15.9663V15.9731V15.9798V15.9865V15.9932V16V16.0067V16.0134V16.0202V16.0269V16.0336V16.0404V16.0471V16.0538V16.0605V16.0673V16.074V16.0807V16.0875V16.0942V16.1009V16.1077V16.1144V16.1211V16.1278V16.1346V16.1413V16.148V16.1548V16.1615V16.1682V16.175V16.1817V16.1884V16.1952V16.2019V16.2086V16.2153V16.2221V16.2288V16.2355V16.2423V16.249V16.2557V16.2625V16.2692V16.2759V16.2827V16.2894V16.2961V16.3029V16.3096V16.3163V16.3231V16.3298V16.3365V16.3433V16.35V16.3567V16.3634V16.3702V16.3769V16.3836V16.3904V16.3971V16.4038V16.4106V16.4173V16.424V16.4308V16.4375V16.4442V16.451V16.4577V16.4644V16.4712V16.4779V16.4846V16.4914V16.4981V16.5048V16.5116V16.5183V16.525V16.5318V16.5385V16.5452V16.552V16.5587V16.5654V16.5722V16.5789V16.5856V16.5924V16.5991V16.6058V16.6126V16.6193V16.626V16.6328V16.6395V16.6462V16.653V16.6597V16.6664V16.6732V16.6799V16.6866V16.6934V16.7001V16.7068V16.7136V16.7203V16.727V16.7338V16.7405V16.7472V16.754V16.7607V16.7674V16.7742V16.7809V16.7876V16.7944V16.8011V16.8078V16.8146V16.8213V16.828V16.8348V16.8415V16.8483V16.855V16.8617V16.8685V16.8752V16.8819V16.8887V16.8954V16.9021V16.9089V16.9156V16.9223V16.9291V16.9358V16.9425V16.9493V16.956V16.9627V16.9695V16.9762V16.9829V16.9897V16.9964V17.0031V17.0099V17.0166V17.0233V17.0301V17.0368V17.0435V17.0503V17.057V17.0637V17.0705V17.0772V17.0839V17.0907V17.0974V17.1041V17.1109V17.1176V17.1243V17.1311V17.1378V17.1445V17.1513V17.158V17.1647V17.1715V17.1782V17.1849V17.1917V17.1984V17.2051V17.2119V17.2186V17.2253V17.2321V17.2388V17.2455V17.2523V17.259V17.2657V17.2725V17.2792V17.2859V17.2927V17.2994V17.3061V17.3129V17.3196V17.3263V17.3331V17.3398V17.3465V17.3533V17.36V17.3667V17.3734V17.3802V17.3869V17.3936V17.4004V17.4071V17.4138V17.4206V17.4273V17.434V17.4408V17.4475V17.4542V17.461V17.4677V17.4744V17.4812V17.4879V17.4946V17.5013V17.5081V17.5148V17.5215V17.5283V17.535V17.5417V17.5485V17.5552V17.5619V17.5687V17.5754V17.5821V17.5889V17.5956V17.6023V17.609V17.6158V17.6225V17.6292V17.636V17.6427V17.6494V17.6562V17.6629V17.6696V17.6763V17.6831V17.6898V17.6965V17.7033V17.71V17.7167V17.7234V17.7302V17.7369V17.7436V17.7504V17.7571V17.7638V17.7705V17.7773V17.784V17.7907V17.7975V17.8042V17.8109V17.8176V17.8244V17.8311V17.8378V17.8446V17.8513V17.858V17.8647V17.8715V17.8782V17.8849V17.8916V17.8984V17.9051V17.9118V17.9186V17.9253V17.932V17.9387V17.9455V17.9522V17.9589V17.9656V17.9724V17.9791V17.9858V17.9925V17.9993V18.006V18.0127V18.0194V18.0262V18.0329V18.0396V18.0463V18.0531V18.0598V18.0665V18.0732V18.08V18.0867V18.0934V18.1001V18.1069V18.1136V18.1203V18.127V18.1338V18.1405V18.1472V18.1539V18.1607V18.1674V18.1741V18.1808V18.1875V18.1943V18.201V18.2077V18.2144V18.2212V18.2279V18.2346V18.2413V18.248V18.2548V18.2615V18.2682V18.2749V18.2817V18.2884V18.2951V18.3018V18.3085V18.3153V18.322V18.3287V18.3354V18.3421V18.3489V18.3556V18.3623V18.369V18.3757V18.3825V18.3892V18.3959V18.4026V18.4093V18.4161V18.4228V18.4295V18.4362V18.4429V18.4496V18.4564V18.4631V18.4698V18.4765V18.4832V18.4899V18.4967V18.5034V18.5101V18.5168V18.5235V18.5302V18.537V18.5437V18.5504V18.5571V18.5638V18.5705C22.6297 19.4588 22.4154 20.1851 22.0263 20.784C21.6356 21.3856 21.0493 21.8881 20.2616 22.2951Z" fill="white" stroke="#311F2D"/>
<path d="M11.6902 14.7874C11.6956 13.015 13.1858 11.5524 15.0237 11.5579C16.8553 11.5634 18.3342 13.0436 18.3287 14.8474V14.8489C18.3287 16.6356 16.849 18.1012 15.0015 18.0957C13.1527 18.0902 11.6847 16.6181 11.6902 14.7874ZM11.6902 14.7874L11.1902 14.7859L11.6902 14.7874ZM11.9119 14.8129L11.9119 14.8129V14.8174C11.9119 16.5038 13.3062 17.8729 14.9978 17.8804V17.8804H15C16.7043 17.8804 18.1184 16.5309 18.126 14.8385H18.126V14.8363C18.126 13.1456 16.7332 11.767 15.0315 11.767C13.3227 11.767 11.927 13.1203 11.9119 14.8129Z" fill="white" stroke="#311F2D"/>
<path d="M19.2765 11.0807L19.2765 11.0806H19.2695C19.1308 11.0806 18.9732 10.9485 18.976 10.7437L18.976 10.7437V10.7368C18.976 10.5495 19.1274 10.4119 19.2821 10.4119C19.4245 10.4119 19.5818 10.5431 19.5818 10.7494C19.5818 10.9496 19.4257 11.0828 19.2765 11.0807Z" stroke="#311F2D"/>
</svg>
