<svg xmlns="http://www.w3.org/2000/svg" viewBox="0 0 150 150"><g id="like"><path d="M148,40A34,34,0,0,0,114,6c-11.83,0-21.12,6.18-27,14.35h0l-.14.21a.39.39,0,0,0-.08.1h0L74.62,38.34A40,40,0,0,0,41,20C16.83,20,1.59,41.91,1,60,.62,71.81,6.53,80.71,9,84c.14.18,2.26,2.39,2.26,2.39l53.09,56.38a12.16,12.16,0,0,0,2.38,2.53v0h0A12.49,12.49,0,0,0,83.27,126.6h0L29.48,69a14.49,14.49,0,0,1-3-9c.22-6.78,5.94-15,15-15A15,15,0,0,1,53.61,68.82l0,0A12.29,12.29,0,0,0,52.83,70l-.08.12h0A12.36,12.36,0,0,0,51,76.5,12.49,12.49,0,0,0,74.17,83l32.38-48a9,9,0,1,1,14.81,10.21h0L83.27,102.32h0a12.49,12.49,0,0,0,19.51,15.52h0l0-.06c.77-.85,39.41-58.86,39.41-58.86h0c.06-.08.33-.53.33-.53A33.81,33.81,0,0,0,148,40Z"/></g></svg>