<svg id="Слой_1" data-name="Слой 1" xmlns="http://www.w3.org/2000/svg" viewBox="0 0 25 30"><ellipse cx="12.41" cy="10.73" rx="2.98" ry="2.63"/><path d="M24.75,2.85a2.82,2.82,0,0,0-3-2.63A3,3,0,0,0,19,2,12.9,12.9,0,0,0,12.4.22a12.43,12.43,0,0,0-6.05,1.5A3,3,0,0,0,3.68.22a2.82,2.82,0,0,0-3,2.63A2.59,2.59,0,0,0,2.37,5.19,11.6,11.6,0,0,0,1,7.88,9.9,9.9,0,0,0,.61,9.23s0,.35-.08.78a3.06,3.06,0,0,0,.67,2.24,2.79,2.79,0,0,0,2.27,1.11A2.81,2.81,0,0,0,6,10.74H6c0-3.26,3.14-5.88,6.88-5.66,3.2.18,5.79,2.49,6,5.31a5.64,5.64,0,0,1-3.7,5.49,10,10,0,0,0-2.7-.37c-4.7,0-8.5,3.13-8.5,7s3.8,7,8.5,7,8.5-3.13,8.5-7A6,6,0,0,0,19.74,19a10.2,10.2,0,0,0,4.55-7.78,9.34,9.34,0,0,0-1.72-5.82A2.7,2.7,0,0,0,24.75,2.85Z"/></svg>