<svg id="login" xmlns="http://www.w3.org/2000/svg" viewBox="0 0 150 150"><ellipse cx="75.53" cy="53.65" rx="14.88" ry="13.14"/><path d="M137.26,14.23c0-7.25-6.66-13.14-14.88-13.14-6.6,0-12.14,3.84-14.08,9.1a64.53,64.53,0,0,0-32.82-9.1A62.53,62.53,0,0,0,45.27,8.58,15.11,15.11,0,0,0,31.89,1.09C23.67,1.09,17,7,17,14.23c0,5.17,3.41,9.6,8.32,11.74a59,59,0,0,0-6.88,13.45,44.86,44.86,0,0,0-1.88,6.74s-.25,1.73-.44,3.9a15.53,15.53,0,0,0,3.37,11.2c2.86,3.5,7.09,5.85,11.35,5.53a13.94,13.94,0,0,0,12.39-13.1c0,.08,0,.14,0,0,0-16.31,15.68-29.4,34.39-28.32,16,.93,29,12.46,29.91,26.58.82,12.11-7,22.68-18.48,27.44A50.66,50.66,0,0,0,75.53,77.5c-23.47,0-42.5,15.67-42.5,35s19,35,42.5,35,42.5-15.67,42.5-35a30.28,30.28,0,0,0-5.83-17.63c13.2-9.22,22-23.22,22.73-38.92a46.54,46.54,0,0,0-8.6-29.1C132.62,25.31,137.26,20.28,137.26,14.23Z"/></svg>