<svg id="Слой_1" data-name="Слой 1" xmlns="http://www.w3.org/2000/svg" viewBox="0 0 25 30"><defs><style>.cls-1{fill:#fff;}</style></defs><ellipse class="cls-1" cx="12.41" cy="10.73" rx="2.98" ry="2.63"/><ellipse class="cls-1" cx="3.68" cy="2.85" rx="2.98" ry="2.63"/><ellipse class="cls-1" cx="21.78" cy="2.85" rx="2.98" ry="2.63"/><ellipse class="cls-1" cx="12.41" cy="22.5" rx="8.5" ry="7"/><path class="cls-1" d="M12.4.22A12.23,12.23,0,0,0,2.48,5,11.52,11.52,0,0,0,1,7.88,9.9,9.9,0,0,0,.61,9.23s0,.35-.08.78a3.06,3.06,0,0,0,.67,2.24,2.79,2.79,0,0,0,2.27,1.11A2.8,2.8,0,0,0,6,10.73H6c0-3.26,3.14-5.88,6.88-5.66,3.2.18,5.79,2.49,6,5.31.22,3.29-2.74,6-6.41,6a7.43,7.43,0,0,1-1.72-.21C8.62,16,7.94,17.58,5.5,18.5c2.29,2.86,3.34,3,7.68,2.72,6-.34,10.84-4.71,11.11-10C24.59,5,18.6.21,12.4.22Z"/></svg>