<svg width="60" height="60" viewBox="0 0 60 60" fill="none" xmlns="http://www.w3.org/2000/svg">
<path d="M30.2908 57.244C45.7212 57.244 58.2301 44.7351 58.2301 29.3047C58.2301 13.8742 45.7212 1.36536 30.2908 1.36536C14.8603 1.36536 2.35144 13.8742 2.35144 29.3047C2.35144 44.7351 14.8603 57.244 30.2908 57.244Z" fill="#E3D2D8"/>
<path d="M9.40579 24.7788C9.48164 24.4753 9.05181 21.1884 11.2516 18.7863C11.555 18.4577 15.6005 14.665 19.7218 13.4766C22.4273 12.6675 23.3375 13.8812 24.3995 13.2238C25.4614 12.5664 25.5373 12.1113 26.5486 11.9595C27.56 11.8078 27.4842 12.1365 28.6978 12.3388C30.3919 12.5917 30.8217 12.1113 32.8698 12.3388C33.2743 12.3641 33.249 12.3894 34.6144 12.6422L38.6852 13.3502C43.6157 14.134 44.45 17.2946 47.2566 19.115C50.0632 20.9355 49.7092 20.4046 49.6081 20.885C49.2288 22.4273 39.7724 17.3451 29.0518 20.4298C22.402 22.3262 10.2402 36.1568 6.59922 34.5891C3.81793 33.4008 8.72311 27.6612 9.40579 24.7788Z" fill="#E3D2D8"/>
<path d="M18.5082 22.8319C18.3312 21.8458 21.0114 20.2781 22.756 19.6713C24.5006 19.0645 24.981 19.2162 28.9507 18.2807C30.0379 18.0025 31.6056 17.6233 31.6561 16.9659C31.7067 16.3085 30.7712 16.2579 30.6195 15.2718C30.5942 15.1959 30.4678 14.488 30.8723 14.0834C31.2769 13.6789 34.1846 13.3249 34.6144 13.4513C39.4437 14.5891 39.0139 13.8053 43.2364 15.6258C44.0961 15.9798 47.8129 19.8736 50.3161 20.9355C53.3502 22.1997 54.5386 25.6384 56.4096 27.0291C58.2807 28.4197 52.0607 26.6245 51.5044 26.2453C43.8685 21.2136 19.0645 25.689 18.5082 22.8319Z" fill="#595055"/>
<path d="M22.3009 22.2756C18.5588 23.4134 17.1681 25.3603 16.8142 25.8912C15.7775 27.4589 14.9178 30.0379 15.7269 32.1365C17.4463 36.6371 26.3717 37.7749 32.8698 35.7522C36.89 34.488 42.9836 31.0493 42.6043 27.6612C42.1239 23.1605 30.2402 19.8735 22.3009 22.2756Z" fill="white"/>
<path d="M22.3515 34.6144C21.1884 34.311 19.4438 34.3363 17.7244 32.1365C17.4463 31.8078 16.3085 30.2402 16.713 28.5967C16.9406 27.6106 17.6739 26.9279 20.885 25.0569C23.6916 23.4134 25.0822 22.6043 25.8407 22.3767C30.2149 21.0366 36.3591 21.9974 37.952 25.0569C38.306 25.7648 38.6347 26.9532 39.2162 26.9532C39.7978 26.9532 39.9747 25.4614 40.8597 25.3097C41.7447 25.158 42.6043 26.1188 42.756 27.0796C42.9077 28.0404 42.3768 28.7231 41.6182 29.9368C41.2137 30.6194 41.0367 30.7712 41.1125 30.8723C41.1884 30.9734 46.22 30.0632 46.6751 27.9646C47.2061 25.4108 42.2503 21.3653 37.067 20.3792C35.2213 20.0253 33.3755 20.2781 29.684 20.7585C24.7282 21.4159 21.8711 21.7952 18.5588 23.4639C17.0923 24.1972 11.3275 27.1049 11.732 30.2655C12.0101 32.2882 14.7661 33.5524 15.7522 34.0076C18.9886 35.4993 22.7055 34.7155 22.3515 34.6144Z" fill="#B8BDCC"/>
<path d="M22.3009 22.2756C21.4159 23.2111 21.3401 24.4248 21.2895 25.4867C21.1125 28.7231 23.3881 31.1504 24.2478 32.0607C24.9052 32.8192 25.689 33.4513 26.5487 33.957C30.1896 35.8533 34.1593 33.9317 34.7155 33.6536C36.005 33.072 37.1176 32.1365 37.9267 30.9482C38.9128 29.4311 39.0139 27.9646 39.1656 26.1441C39.3173 23.8432 39.3932 22.7054 38.6599 21.7952C37.4715 20.354 35.0442 20.4551 33.603 20.5057C32.1618 20.5562 32.086 20.708 30.8976 20.9355C25.6384 21.8963 23.7421 20.8091 22.3009 22.2756Z" fill="black"/>
<path d="M18.0531 43.1606C20 44.2984 21.9722 43.9697 27.914 43.6663C29.7345 43.5651 30.6953 43.8685 32.5917 43.9191C35.9292 44.0455 38.2807 43.6157 39.0392 43.287C39.7977 42.9583 37.4716 42.0733 37.775 41.2642C37.9267 40.8597 38.6094 40.6321 39.646 39.7725C41.3654 38.3565 41.4159 38.7864 42.3009 38.3818C43.9697 37.598 43.6663 37.3452 45.7396 35.9545C46.7762 35.2465 46.8521 35.4741 48.268 34.5639C49.684 33.6536 50.8976 32.8698 50.9229 32.0354C50.9735 30.6953 48.5967 29.7345 48.7737 29.3806C48.9507 29.0266 51.1252 27.6865 52.3641 27.6359C57.1176 27.4337 57.3199 29.4564 57.4969 28.622C57.9267 26.5487 53.0974 26.0683 49.153 26.2958C46.7004 26.4223 44.8799 26.8521 44.2225 27.1555C43.11 27.6612 42.402 28.5462 41.2642 29.2794C39.3426 30.5436 37.3199 31.6814 35.2718 32.7181C32.1871 34.1846 28.8243 34.9684 25.4109 35.0443C25.1833 35.0948 29.507 35.373 33.4261 34.2605C34.3363 33.9823 35.2465 33.6789 36.1315 33.2996C40.9861 31.2769 28.6979 35.3477 25.2845 34.9937C21.8711 34.6397 19.1403 33.7548 12.4905 33.2996C10.9988 33.1732 8.21746 33.0468 8.01519 33.5525C7.58535 34.6903 11.8584 35.7017 12.4147 36.9153C14.3363 41.062 15.2465 41.5171 18.0531 43.1606Z" fill="#E3D2D8"/>
<path d="M35.6005 13.7548C33.603 13.2996 32.8192 12.0607 31.8078 12.263C30.7965 12.4653 30.5942 14.6397 28.8748 15.373C28.0657 15.7269 28.4703 17.952 29.0013 18.2807C29.5322 18.6094 30.2655 17.5474 31.7826 17.5221C33.2996 17.4969 33.2743 18.2554 34.4374 18.2301C36.0303 18.2301 37.598 16.7889 37.421 16.1315C37.244 15.4741 37.8761 14.2857 35.6005 13.7548Z" fill="#E6DAE9"/>
<path d="M10.9987 28.0152C7.96462 30.8218 7.83819 32.086 7.96462 32.7939C8.04047 33.2238 8.24274 33.6283 8.54616 33.957C9.48168 34.9937 11.0493 34.6397 13.4008 34.5891C15.7522 34.5386 14.6144 34.1087 17.4716 34.488C20.3287 34.8673 23.641 35.0948 23.7168 35.0948C24.7282 34.9937 17.5221 34.0329 15.0443 33.0721C14.5386 32.8445 13.4261 32.3894 12.7687 31.3022C12.5917 30.9735 12.1113 30.1391 12.3894 29.3553C12.6675 28.5714 13.5272 28.5209 14.7914 27.5095C15.5752 26.8521 15.8534 26.3717 16.3085 25.866C18.6599 23.1353 22.7307 22.6549 22.6549 22.3768C22.579 22.0986 21.6941 22.2503 20.4046 22.5285C15.9039 23.4893 13.0215 26.1189 10.9987 28.0152Z" fill="#56003F"/>
<path d="M9.4058 25.7396C9.30466 25.5879 11.2768 24.5512 11.4286 22.7813C11.5044 21.9975 11.1757 21.2136 11.6055 20.9355C12.0354 20.6574 11.9848 20.9102 12.4399 20.8344C13.1985 20.6827 13.8053 20.1517 14.0329 19.4185C14.2098 18.7358 13.7294 18.2301 13.957 18.0531C14.1846 17.8761 14.4374 18.2048 14.8925 18.3059C15.3476 18.4071 16.3843 18.0278 17.1428 17.5727C18.1036 16.9911 19.0897 16.4855 20.1011 16.0303C21.9216 15.3224 22.9835 14.8925 24.2478 15.019C24.5006 15.0442 24.9557 15.1201 25.158 14.8672C25.3603 14.6144 24.8293 13.2743 25.0063 13.1732C25.1833 13.0721 25.5373 14.0581 26.5234 14.4374C26.7256 14.5133 26.7509 14.488 29.0518 14.4374C29.5069 14.4121 29.7092 14.4121 29.9621 14.2604C30.2149 14.1087 30.5689 13.249 30.8217 13.1732C31.0746 13.0973 31.3274 13.7547 31.909 14.1846C32.4905 14.6144 33.2996 14.5386 34.1846 14.5386C35.0695 14.5386 35.8533 14.7408 37.6485 15.1201C39.4437 15.4994 40.8849 16.0556 43.1353 16.9406C43.9444 17.244 44.7535 17.5474 45.5626 17.9014C46.22 18.2048 46.9026 18.4576 47.5853 18.6599C48.1669 18.7863 48.268 18.7611 48.5967 18.9128C49.4311 19.2667 49.4058 19.7977 50.1138 20.2528C50.8217 20.708 51.8584 20.4045 52.1365 20.9355C52.4146 21.4665 52.0607 22.225 51.5803 22.3767C51.0999 22.5284 50.1896 20.6321 48.6725 20.5815C48.268 20.5815 47.9899 20.708 47.5853 20.5057C47.1808 20.3034 47.1555 19.823 46.6751 19.4943C46.1947 19.1656 45.3856 19.6207 44.6017 19.2162C43.8179 18.8116 43.9949 18.6093 43.7168 18.2301C43.1352 17.4463 42.3009 17.1681 38.9127 16.4602C37.0923 16.0809 36.182 15.8786 35.5246 15.7775C33.5777 15.4488 31.6055 15.2718 29.6334 15.2718C27.206 15.2718 24.804 15.6005 22.4779 16.2832C20.4804 16.89 18.5841 17.7244 16.8141 18.8116C14.9684 19.8989 14.0329 20.4551 13.249 21.6435C12.7181 22.4273 12.6675 22.9077 11.9342 23.7927C10.7964 25.158 9.48165 25.8407 9.4058 25.7396Z" fill="#311F2D"/>
<path d="M10.8217 27.8382C10.4172 27.4842 4.75346 31.5803 5.76483 34.0834C6.04296 34.7408 7.58532 34.9178 8.39442 35.1201C9.78506 35.4741 9.83563 35.1454 10.9987 35.7522C11.3527 35.9292 11.6308 36.2073 11.8331 36.5613C12.9962 37.9772 13.1226 38.4829 14.0329 39.9241C14.9431 41.3653 13.1985 35.9798 11.9595 35.2971C10.0885 34.2857 9.0771 34.5891 8.54612 33.7547C7.43361 31.9848 11.1757 28.1669 10.8217 27.8382Z" fill="#443648"/>
<path d="M36.9153 21.9975C37.3199 22.3515 37.7244 22.8824 40.2782 23.11C42.4273 23.3123 41.0114 23.5398 43.2617 24.7788C43.6157 24.981 44.0708 25.2339 44.1467 25.6637C44.2225 26.0936 43.8685 26.5992 43.3881 27.3072C42.9077 28.0152 41.7952 28.9254 41.7447 28.976C41.6941 29.0266 43.4134 27.7118 44.0708 27.6359C44.2984 27.6106 44.4501 27.4589 45.4615 28.1922C45.7902 28.445 46.1694 28.6473 46.5487 28.8243L47.105 29.0013C47.9646 29.3805 48.1922 30.2908 48.3692 30.2149C48.5462 30.1391 48.5209 29.6587 48.3186 29.2035C48.1163 28.7484 47.5601 28.4197 47.6106 28.3186C47.6612 28.2175 48.2175 28.5967 48.622 28.3692C49.0266 28.1416 48.9002 27.7623 49.2036 27.6865C49.507 27.6106 49.7851 28.1669 50.0885 28.0657C50.3919 27.9646 50.2149 27.8129 50.5184 27.4336C50.8218 27.0544 50.8723 27.0038 51.0999 26.9785C51.3275 26.9532 51.4792 27.5095 51.8584 27.6106C52.2377 27.7118 52.6675 27.3072 53.2491 26.9279C54.2857 26.1947 54.7409 27.6359 55.3983 27.0797C56.0557 26.5234 57.1176 27.6612 57.1176 27.4336C57.1176 27.2061 55.3477 25.1833 54.5386 25.6384C54.1088 25.8407 53.7801 25.8913 53.5019 25.5879C53.2238 25.2845 53.5525 24.7535 53.2996 24.5765C53.0468 24.3995 52.5917 24.9305 51.7826 25.2086C50.9735 25.4867 50.6701 25.2845 49.3806 25.2845C48.0911 25.2845 47.6612 25.6132 46.8521 25.5373C45.2339 25.3856 44.7282 23.9949 43.3123 22.933C40.3287 20.7333 36.5361 21.6435 36.9153 21.9975Z" fill="#56003F"/>
<path d="M26.6751 21.3401C26.4222 21.6688 26.2452 22.0481 26.1694 22.4526C26.1188 22.7307 26.043 23.3123 26.3464 23.6157C26.6498 23.9191 28.0404 23.7927 28.0404 23.7927C28.0404 23.7927 27.9899 25.1328 28.2933 25.2339C28.5967 25.335 28.5714 24.9305 29.2035 24.2225C29.8356 23.5146 29.8609 23.4893 30.139 23.3629C30.4172 23.2364 31.1251 23.4893 31.4033 23.287C31.6814 23.0847 31.6814 21.5677 30.8976 20.8344C30.1138 20.1012 27.5347 20.3034 26.6751 21.3401Z" fill="#BCBCD1"/>
<path d="M45.3856 23.5904C45.0316 23.7674 44.0455 22.2503 42.7307 20.9355C39.6207 17.7497 36.182 17.1681 36.2832 16.89C36.3843 16.6119 39.7724 17.4463 42.7307 19.292C43.5651 19.7977 44.7535 20.6068 45.2592 22.0733C45.4614 22.579 45.6384 23.4387 45.3856 23.5904Z" fill="#311F2D"/>
<path d="M9.60809 21.8205C9.60809 22.1239 9.30468 22.8824 10.4931 20.7586C12.2882 17.5474 15.8534 16.7889 17.5727 16.0304C20.3793 14.8167 22.1492 14.5891 22.1239 14.5133C22.0986 14.4374 16.1821 14.5639 11.8584 18.2301C9.88622 19.8736 9.63338 21.6182 9.60809 21.8205Z" fill="#311F2D"/>
<path d="M7.45894 33.9065C7.58536 33.9318 7.76235 32.9457 8.59674 31.6814C9.10243 30.9229 9.6334 30.1138 10.6195 29.6587C11.6056 29.2036 11.4792 29.4817 11.8837 29.153C12.2883 28.8243 12.263 27.8635 12.8951 27.3831C13.5272 26.9027 13.8812 27.3072 14.5386 26.8774C15.196 26.4476 14.9684 26.1947 15.4235 25.6132C15.8787 25.0316 16.7383 24.9052 18.8369 23.7168C19.7725 23.1859 19.5955 23.1859 20.1012 22.9583C21.3148 22.4021 22.3009 22.4021 23.3881 22.3262C25.2845 22.1492 25.2086 21.8964 27.0544 21.6941C28.9002 21.4918 31.3275 21.6688 34.134 22.0734C35.9545 22.3009 36.713 22.7813 38.2807 22.7308H40.0253C41.6941 22.756 42.1492 23.6916 42.4779 23.9697C43.4134 24.7788 44.5007 25.4109 45.6385 25.866C46.4728 26.1442 47.9393 26.6751 49.5575 26.1189C50.7206 25.689 52.1366 24.6524 52.3388 23.2112C52.4653 22.4021 52.2124 21.5677 51.9596 21.5677C51.7067 21.5677 51.6562 23.3629 50.4425 24.2225C49.2288 25.0822 47.1555 24.5259 47.0291 23.9697C46.9027 23.4134 49.5323 22.9836 50.3161 20.9356C50.7712 19.7219 50.4425 18.4324 50.1897 18.4071C49.9368 18.3818 49.8862 19.8989 48.6726 21.3148C47.8129 22.3262 46.4728 23.1606 46.0177 22.8319C45.5626 22.5032 47.2314 18.7611 46.7763 18.5335C46.3211 18.306 45.2086 20.2529 44.7535 20.0506C44.2984 19.8483 44.9052 17.5222 44.8799 17.5222C44.8546 17.5222 44.8799 18.8875 43.995 19.5449C43.7421 19.7219 43.641 19.6966 42.9836 19.9242C41.6435 20.3793 41.0873 20.9103 40.9608 20.8091C40.8344 20.708 42.3768 19.4691 42.9836 17.5222C43.5904 15.5753 43.0594 13.9823 42.8572 13.9823C42.6549 13.9823 42.9836 16.0557 41.7194 18.0278C40.8091 19.4185 39.2162 20.5057 38.6852 20.177C38.1543 19.8483 38.5841 18.6852 38.6852 18.2807C39.2668 16.0809 40.885 14.9431 40.708 14.7409C40.531 14.5386 39.5449 14.9684 38.6852 15.8787C37.2187 17.3957 37.598 19.0392 36.5361 19.4185C35.9039 19.6208 35.0443 19.2921 34.6397 18.7864C34.2352 18.2807 34.7409 16.9912 34.7661 14.7409C34.7914 12.8951 34.3616 11.555 34.2605 11.5803C34.1593 11.6056 34.6144 13.8559 33.7548 16.5108C33.7295 16.6372 32.9709 18.8622 32.3641 18.7864C31.7573 18.7105 31.5803 15.3477 31.2263 15.373C30.8723 15.3983 31.1252 17.067 30.0885 18.7864C29.7598 19.3174 29.2036 20.2529 28.6979 20.177C27.4589 19.9747 27.4589 13.8306 27.1808 13.8559C26.9027 13.8812 26.8268 16.7636 26.8015 17.0165C26.7257 18.5335 26.751 19.0898 26.2959 19.5449C25.8407 20 24.9305 20.1012 24.2731 19.9242C21.8205 19.1909 21.416 14.134 20.9861 14.2352C20.5563 14.3363 20.7586 15.6258 20.9861 16.89C21.2137 18.1543 21.4412 18.3565 21.6182 19.6713C21.7952 20.9861 21.5929 21.3654 21.4918 21.4412C21.3907 21.5171 20.2529 21.3654 19.7219 20.9356C18.3313 19.7725 18.3313 17.4969 18.3313 17.5222C18.3313 17.5474 19.3679 21.5677 18.5841 21.9469C17.8003 22.3262 16.9659 20.9608 16.3085 19.9242C15.2465 18.1796 15.3224 16.6119 15.1707 16.6372C15.019 16.6625 14.4374 19.1404 15.6764 21.062C16.1315 21.7447 16.6625 22.0986 16.5613 22.7055C16.3843 23.464 15.7017 23.9697 14.9179 23.9697C13.957 23.818 13.4261 22.2503 13.2744 22.3262C13.1227 22.4021 14.2605 24.0455 13.6536 25.2339C13.2996 25.866 12.617 26.2706 11.8837 26.2453C11.1505 26.1694 10.6953 25.4615 10.4931 25.6132C10.2908 25.7649 10.9735 26.6498 10.6195 27.2567C10.2655 27.8635 9.55755 27.4842 9.22885 28.0152C8.90015 28.5462 9.45641 28.799 9.35527 29.5323C9.25413 30.2655 8.44503 30.5184 7.83821 31.6814C7.23138 32.8445 7.33252 33.8559 7.45894 33.9065Z" fill="#1E0009"/>
<path d="M16.6877 37.8761C16.4349 38.1037 16.2832 38.4324 16.3085 38.7611C16.3337 39.3932 17.0417 40 18.7105 40.7838C20.8344 41.7446 22.579 42.0986 24.5259 42.5537C27.8635 43.287 27.4336 43.3123 28.5461 43.5145C33.1985 44.3236 37.6738 43.3881 37.6738 42.933C37.6738 42.4779 26.0177 43.6915 20.4804 39.5196C19.8989 39.0645 17.6233 37.2187 16.6877 37.8761Z" fill="#60366C"/>
<path d="M14.0581 37.1681C13.9823 37.3957 16.3085 40.2781 18.9633 41.1631C20.6827 41.6941 23.8432 43.0088 28.0657 43.5651C34.0076 44.3236 39.2162 43.464 39.1909 43.1858C39.1656 42.9077 34.2098 43.4134 26.8015 42.1745C20.1517 41.0367 14.1593 36.89 14.0581 37.1681Z" fill="#311F2D"/>
<path d="M11.8837 35.3223C12.1365 35.4235 14.3869 37.067 17.6233 37.9772C19.646 38.5335 21.6941 38.9633 23.7674 39.2667C26.1188 39.6207 27.8382 39.8988 30.2149 40.0253C30.9229 40.0505 33.0974 39.9494 37.421 39.7724C39.9494 39.646 41.6941 39.5449 43.3628 38.3818C43.4893 38.2806 44.7282 37.3957 44.5765 37.0164C44.4248 36.6371 43.8938 36.713 40.9608 37.3704C38.4324 37.9266 37.1176 38.3565 36.1568 38.6093C34.4627 39.0139 32.5158 38.8622 28.6979 38.5082C25.6384 38.2301 22.6043 37.8255 19.5955 37.244C14.7156 36.2832 10.9735 34.9936 11.8837 35.3223Z" fill="#311F2D"/>
<path d="M9.07711 32.8192C9.2541 32.3388 9.75979 32.086 10.2402 32.2124C10.5689 32.3388 10.493 32.6675 10.847 33.0721C11.201 33.4766 12.3894 33.5019 12.4399 33.8306C12.4905 34.1593 11.8331 34.5133 11.1757 34.5891C10.5689 34.6144 9.98735 34.3616 9.5828 33.9065C9.32996 33.6536 8.95069 33.2491 9.07711 32.8192Z" fill="#E7E2E9"/>
<path d="M21.1125 36.2326C21.1378 36.0556 23.7926 36.5613 27.8129 36.2326C32.2629 35.8281 34.488 35.6258 35.3982 35.3477C36.3084 35.0695 37.1175 34.7408 37.5474 35.2212C37.9772 35.7016 37.7244 36.359 37.421 36.8647C36.7636 37.9014 34.9936 38.0784 27.0796 37.1429C25.0316 36.89 21.1125 36.4096 21.1125 36.2326Z" fill="#E4D3E9"/>
<path d="M24.0961 35.3477C23.9191 35.3983 23.9443 35.9545 24.0202 36.3591C24.0961 36.7636 24.1972 36.6878 24.273 37.0417C24.3489 37.3957 24.2983 38.0025 24.3742 38.0278C24.45 38.0531 24.9557 37.3199 24.8546 36.5361C24.7534 35.7522 24.273 35.2718 24.0961 35.3477Z" fill="#1E0009"/>
<path d="M26.4981 36.0303C26.2453 36.1062 26.5993 38.3312 26.8774 38.3312C27.1555 38.3312 27.2061 37.6232 27.0544 36.9911C26.9027 36.359 26.6245 35.9797 26.4981 36.0303Z" fill="#1E0009"/>
<path d="M29.7092 35.8534C29.5828 35.8281 29.33 36.4349 29.4058 37.0417C29.4817 37.6486 30.1644 38.4324 30.2908 38.3818C30.4172 38.3312 30.2149 38.1037 30.0379 37.3704C29.861 36.6372 29.8357 35.8534 29.7092 35.8534Z" fill="#1E0009"/>
<path d="M31.555 35.8534C31.3275 35.9039 31.2263 36.3591 31.3527 36.6625C31.4792 36.9659 31.6309 36.89 31.8584 37.1682C32.086 37.4463 32.1871 38.0025 32.2377 38.0025C32.2883 38.0025 32.5917 36.536 31.909 35.9798C31.8331 35.8787 31.6814 35.8281 31.555 35.8534Z" fill="#1E0009"/>
<path d="M33.6283 35.3476C33.4513 35.3982 33.3754 35.8028 33.5019 36.1062C33.6283 36.4096 33.8811 36.3084 34.134 36.536C34.3868 36.7636 34.488 37.9266 34.5132 37.9266C34.5385 37.9266 34.8419 36.8141 34.2604 35.9039C34.2351 35.8533 33.8811 35.2718 33.6283 35.3476Z" fill="#1E0009"/>
<path d="M35.3983 35.3477C35.3224 35.1454 35.9545 34.7155 36.1568 34.5891C36.5108 34.2857 36.9659 34.0834 37.421 34.0076C37.8508 33.957 38.0025 34.0329 38.1795 33.8812C38.3565 33.7294 38.2807 33.2743 38.5082 33.1226C38.7358 32.9709 39.1909 33.0973 39.2668 33.3249C39.3426 33.5525 38.9128 33.7042 38.6852 34.3363C38.5841 34.5385 38.5841 34.7661 38.6347 34.9684C38.7611 35.2971 39.1909 35.2971 39.5196 35.5246C39.8483 35.7522 40.4046 37.1176 40.2023 37.244C40 37.3704 39.2162 35.5246 37.5474 35.2212C36.4602 34.9937 35.4994 35.5499 35.3983 35.3477Z" fill="#1E0009"/>
<path d="M40.1517 33.3249C40.0253 33.1985 40.2528 32.6169 40.7079 32.3641C41.1631 32.1113 42.0986 32.3641 42.4779 32.5664C43.4892 33.0215 44.0708 33.8559 43.9949 33.957C43.9191 34.0582 42.5537 32.4905 41.2136 32.8192C40.6321 32.9456 40.2528 33.426 40.1517 33.3249Z" fill="#1E0009"/>
<path d="M42.933 32.2377C42.7054 32.0607 42.9077 31.4539 42.9835 31.1757C43.0847 30.7712 43.3122 30.3919 43.6157 30.0885C44.3489 29.4564 45.3603 29.6081 45.8913 29.7092C46.5739 29.8357 47.206 30.1391 47.737 30.5942C47.9646 30.7712 48.1416 30.9482 48.1163 31.0999C48.091 31.2516 47.4336 31.201 47.1555 31.6056C46.8773 32.0101 47.1302 32.1871 46.8521 32.44C46.7509 32.5158 46.5992 32.5664 46.4728 32.5664C46.1441 32.5411 46.1188 32.086 45.7395 31.8078C45.512 31.6814 45.2339 31.6056 44.9557 31.6056C43.8432 31.5803 43.2364 32.4652 42.933 32.2377Z" fill="#1E0009"/>
<path d="M10.6195 29.6586C10.2908 29.7092 10.0379 30.4425 10.1643 31.0493C10.3666 32.0354 11.6056 32.718 11.9342 32.4652C12.2629 32.2124 11.8331 31.1757 11.555 30.6447C11.2769 30.1138 10.9987 29.5828 10.6195 29.6586Z" fill="#E4D3E9"/>
<path d="M20.4298 38.6852C20.5057 38.4071 23.6157 39.4184 29.0771 39.7724C35.8281 40.2022 40 39.2162 40.0506 39.5701C40.1011 39.9241 35.6764 41.6182 30.3413 41.4159C25.0063 41.2136 20.3287 39.0392 20.4298 38.6852Z" fill="#E4D3E9"/>
<path d="M27.6865 26.8015C27.0796 26.0177 25.4867 26.2959 24.6523 26.6246C24.2478 26.7763 23.5398 27.0544 23.3881 27.6359C23.2364 28.2175 23.5651 28.3692 24.0202 29.2794C24.4753 30.1897 24.7029 30.5942 24.7282 30.5942C24.7535 30.5942 25.9166 31.6814 27.6865 32.1113C29.0013 32.4147 30.5942 32.794 31.4791 31.9849C31.8584 31.6562 32.0354 31.1505 32.6169 31.0493C33.1985 30.9482 33.1732 31.1758 33.6283 31.1758C34.6903 31.1252 35.6005 29.8104 35.9039 29.33C36.7889 27.9646 37.5221 25.689 36.6624 24.9811C36.3337 24.7029 35.8786 24.7535 35.1454 24.8546C34.4121 24.9558 33.0721 25.1075 32.7434 25.9924C32.4147 26.8774 33.3755 27.1302 33.1226 28.0152C32.8698 28.9002 32.1871 29.33 31.4286 29.4564C31.0493 29.507 30.8217 29.4311 30.4678 29.6587C30.1138 29.8862 30.0632 30.2655 29.7851 30.2908C29.5069 30.3161 29.4817 30.1391 28.9507 29.6587L28.3186 29.0771C27.6359 28.3186 28.2174 27.4589 27.6865 26.8015Z" fill="#6C6B86"/>
</svg>
