<svg id="Слой_2" data-name="Слой 2" xmlns="http://www.w3.org/2000/svg" viewBox="0 0 30 30"><defs></defs><path d="M29,11.9c0-.23-.21-.85-.25-1a2.21,2.21,0,0,0-2.42-1.7,2,2,0,0,0-1.7,2v0a10.28,10.28,0,0,0,.12,1.57,10.26,10.26,0,0,1,.12,2.09c0,2.56-2.48,9.84-9.84,9.84-5.46,0-9.6-4.38-9.84-10,0-3.19.3-5.29,2.19-5.35,2.91.25,3.09,5.65,3.1,5.76a1.9,1.9,0,0,0,1.88,1.91A1.89,1.89,0,0,0,14,15.07a10.15,10.15,0,0,1,.12-1.22c.48-2.46,2.25-4.32,4-3.87s2.78,2.82,2.3,5.29a6.85,6.85,0,0,1-2.3,3.9,2.1,2.1,0,0,0-.53,2.13,1.76,1.76,0,0,0,2.74.49h0a3.45,3.45,0,0,0,.54-.46A10.68,10.68,0,0,0,23.55,16c.94-4.87-1.1-9.54-4.54-10.43-2.46-.64-5,.81-6.55,3.46A6.77,6.77,0,0,0,7.62,5.15a4.9,4.9,0,0,0-2.46.27V3.64a2.19,2.19,0,0,0-4.37,0v10a.86.86,0,0,0,0,.15v1.47a14.21,14.21,0,0,0,28.41-.28A22.24,22.24,0,0,0,29,11.9Z"/></svg>