<svg xmlns="http://www.w3.org/2000/svg" viewBox="0 0 150 150"><g id="message"><path d="M129.44,97.76c-4.74,0-7.44,2.24-10.82,6.67a50.16,50.16,0,0,1-83.85-3.37,14.44,14.44,0,0,1-2.11-8.49c.27-3.56,2-8,7.56-11.38,6.06-3.67,14-.92,17.61,5l0,.06h0L70,107.37A12.5,12.5,0,1,0,91,94.11h0L80,74.72a13.56,13.56,0,1,1,22.41,3.55c-4.4,4.73-6.75,10.19-4,15.78,3.09,6.17,10.72,8.92,16.77,5.58,4.88-2.69,25.65-23.5,10.77-49.11-8.8-15.14-26.53-23.06-43.41-18.4a38.54,38.54,0,0,0-26.34,24.2,38.37,38.37,0,0,0-25.73,2.14,50.42,50.42,0,0,1,22.12-26.6S62,25,78.5,25c3.19,0,9.37.69,9.37.69C95,26,102,20.85,102,14.5c0-5.39-2-8.5-8.73-11.15A49.09,49.09,0,0,0,77.5,1a72.78,72.78,0,0,0-35.24,9.15l-.2.12a74.18,74.18,0,0,0-31.54,96.22,34.41,34.41,0,0,0,1.69,3.4A74.16,74.16,0,0,0,138.45,118a13.76,13.76,0,0,0,3.11-8.08A12.12,12.12,0,0,0,129.44,97.76Z"/></g></svg>