пше <svg id="Слой_2" data-name="Слой 2" xmlns="http://www.w3.org/2000/svg" viewBox="0 0 30 30"><defs></defs><path d="M27.35,14.17c-1.25,0-1.25,1.37-1.25,1.37a10.74,10.74,0,0,1-21.47.3c0-.33,0-.65,0-1,.25-2.37,2-4.14,3.87-4.14A4,4,0,0,1,12.11,14a7.09,7.09,0,0,1,.21,1.83v2.83a1.12,1.12,0,1,0,2.23.18h0V18.7l.09-3a5.76,5.76,0,0,1,.14-1.17c.48-2.06,2-3.56,3.76-3.56,2.16,0,3.92,2.22,3.92,5a5.83,5.83,0,0,1-2.69,4.71,3,3,0,0,0-.55.45,1.07,1.07,0,0,0-.29,1.29,1.24,1.24,0,0,0,1.18.77A1.68,1.68,0,0,0,21,22.9a8,8,0,0,0,3.73-7.11c0-4.25-2.72-7.7-6.08-7.7a5.85,5.85,0,0,0-5,3.33,5.81,5.81,0,0,0-5-3.53,4.62,4.62,0,0,0-1,.11,11,11,0,0,1,2.58-2,1.48,1.48,0,0,0,.52-.44,1.14,1.14,0,0,0,.07-1.31A1.44,1.44,0,0,0,9.08,3.8C9,3.81,1.37,7.28,2.2,16,2.83,22.74,8,28.22,14.7,28.55a13.17,13.17,0,0,0,13.83-13S28.54,14.17,27.35,14.17Z"/></svg>