<svg width="30" height="30" viewBox="0 0 30 30" fill="none" xmlns="http://www.w3.org/2000/svg">
<path d="M29.4997 14.9999C29.4997 23.0079 23.0079 29.4997 14.9999 29.4997C6.99181 29.4997 0.5 23.0079 0.5 14.9999C0.5 6.99181 6.99181 0.5 14.9999 0.5C23.0079 0.5 29.4997 6.99181 29.4997 14.9999Z" stroke="#311F2D"/>
<path d="M15.0558 10.1693V10.6693H15.5558H19.2027V12.9169H15.559H15.059V13.4169V18.4927C15.059 19.0063 15.1189 19.5437 15.2111 20.0436L15.2144 20.0612L15.2189 20.0785C15.2698 20.2748 15.3989 20.4637 15.4478 20.5353C15.454 20.5443 15.4588 20.5514 15.4621 20.5565L15.4944 20.606L15.5372 20.6466C16.3071 21.3763 17.2715 21.5848 18.3512 21.2693L18.3512 21.2693L18.3586 21.267C18.6176 21.1869 18.8838 21.1093 19.1698 21.0259C19.22 21.0112 19.2707 20.9964 19.3222 20.9814V23.7631C18.4684 24.0076 17.6147 24.1429 16.7414 24.1704C15.973 24.1699 15.2172 24.0818 14.5259 23.8902L14.5181 23.8881L14.5103 23.8862C13.6651 23.681 13.041 23.3156 12.6002 22.8054C12.1628 22.2991 11.873 21.6122 11.7594 20.7034V20.4631C11.7594 20.3423 11.7594 17.9852 11.7284 13.4138L11.725 12.9172H11.2284H9.81763V10.6676C10.0866 10.6442 10.3639 10.58 10.6559 10.4461C12.1359 9.80308 13.0082 8.61223 13.3009 6.97225L13.3086 6.92867V6.90409C13.3108 6.89749 13.3139 6.88845 13.3193 6.87308L13.3202 6.87051C13.3266 6.85205 13.336 6.82506 13.3453 6.79532L13.368 6.72261V6.64644C13.368 6.64456 13.368 6.64268 13.368 6.64081H15.0558V10.1693Z" stroke="#311F2D"/>
</svg>
