<svg width="30" height="30" viewBox="0 0 30 30" fill="none" xmlns="http://www.w3.org/2000/svg">
<path d="M14.9999 29.9997C23.2841 29.9997 29.9997 23.2841 29.9997 14.9999C29.9997 6.71567 23.2841 0 14.9999 0C6.71567 0 0 6.71567 0 14.9999C0 23.2841 6.71567 29.9997 14.9999 29.9997Z" fill="url(#paint0_linear_113_4559)"/>
<path d="M15.5558 10.1693V6.14081H12.9554C12.8969 6.28787 12.868 6.46729 12.868 6.64644C12.8407 6.73387 12.8086 6.79724 12.8086 6.88441C12.542 8.3783 11.7661 9.42031 10.4519 9.98957C10.0618 10.1695 9.70373 10.1968 9.31763 10.1695V13.4172H11.2284C11.2594 17.9874 11.2594 20.3433 11.2594 20.4631V20.734C11.4992 22.7279 12.5418 23.9228 14.3924 24.372C15.137 24.5785 15.9416 24.6704 16.7491 24.6704C17.7919 24.6384 18.8069 24.4595 19.8222 24.1338V20.3118C19.2291 20.4909 18.6882 20.6417 18.2109 20.7893C17.2868 21.0594 16.5109 20.8805 15.8812 20.2837C15.8218 20.1925 15.7338 20.0725 15.7028 19.9529C15.6149 19.4759 15.559 18.9695 15.559 18.4927V13.4169H19.7027V10.1693H15.5558Z" fill="#F1F2F2"/>
<defs>
<linearGradient id="paint0_linear_113_4559" x1="2.49976" y1="-4" x2="16.9998" y2="27.5" gradientUnits="userSpaceOnUse">
<stop stop-color="#395976" stop-opacity="0"/>
<stop offset="1" stop-color="#395976"/>
</linearGradient>
</defs>
</svg>
