<svg width="30" height="30" viewBox="0 0 30 30" fill="none" xmlns="http://www.w3.org/2000/svg">
<path d="M30 15C30 23.2838 23.2838 30 15 30C6.71625 30 0 23.2838 0 15C0 6.71625 6.71625 0 15 0C23.2838 0 30 6.71625 30 15Z" fill="url(#paint0_linear_113_4585)"/>
<path d="M5.66476 14.7878C10.9073 12.4815 17.691 9.66977 18.6278 9.28052C21.084 8.26202 21.8378 8.45702 21.462 10.713C21.192 12.3345 20.4135 17.7023 19.7925 21.0435C19.4243 23.025 18.5978 23.2598 17.2988 22.4025C16.674 21.99 13.5203 19.9043 12.8355 19.4145C12.2108 18.9683 11.349 18.4313 12.4298 17.3738C12.8145 16.9973 15.3353 14.5898 17.2995 12.7163C17.5568 12.4703 17.2335 12.066 16.9365 12.2633C14.289 14.019 10.6185 16.4558 10.1513 16.773C9.44551 17.2523 8.76751 17.472 7.55101 17.1225C6.63151 16.8585 5.73376 16.5435 5.38426 16.4235C4.03801 15.9615 4.35751 15.363 5.66476 14.7878Z" fill="white"/>
<defs>
<linearGradient id="paint0_linear_113_4585" x1="4.3935" y1="4.3935" x2="25.6065" y2="25.6065" gradientUnits="userSpaceOnUse">
<stop stop-color="#33BEF0"/>
<stop offset="1" stop-color="#0A85D9"/>
</linearGradient>
</defs>
</svg>
