<svg width="30" height="30" viewBox="0 0 30 30" fill="none" xmlns="http://www.w3.org/2000/svg">
<path d="M29.5 15C29.5 23.0076 23.0076 29.5 15 29.5C6.99239 29.5 0.5 23.0076 0.5 15C0.5 6.99239 6.99239 0.5 15 0.5C23.0076 0.5 29.5 6.99239 29.5 15Z" stroke="#311F2D"/>
<path d="M20.9688 10.6309L20.9688 10.6309C21.0602 10.0823 21.0718 9.71498 21.0306 9.48081C20.9929 9.26642 20.928 9.23674 20.9003 9.22417C20.827 9.19091 20.6473 9.1626 20.2665 9.24587C19.9004 9.32593 19.4255 9.49103 18.8195 9.74231C18.7815 9.75807 18.7341 9.77778 18.6775 9.80125C17.3357 10.3585 10.8911 13.0349 5.86609 15.2454C5.55728 15.3813 5.33013 15.5088 5.17967 15.6214C5.12386 15.6632 5.0859 15.6974 5.06036 15.7235C5.14014 15.7819 5.28974 15.8625 5.54655 15.9506L5.54663 15.9506C5.57903 15.9617 5.61592 15.9745 5.65689 15.9886C6.06225 16.1284 6.86735 16.406 7.68899 16.6419L7.68907 16.642C8.24685 16.8022 8.64166 16.8207 8.95712 16.7659C9.27151 16.7113 9.55033 16.5767 9.87037 16.3594L9.87039 16.3594C10.3406 16.0401 14.0145 13.6011 16.6599 11.8468L20.9688 10.6309ZM20.9688 10.6309C20.8848 11.1353 20.7539 11.9868 20.5948 13.0215M20.9688 10.6309L20.5948 13.0215M17.5742 21.9852C16.9431 21.5685 13.8012 19.4905 13.1264 19.0078L13.1261 19.0076C13.0989 18.9882 13.0722 18.9693 13.0461 18.9507C12.9111 18.8548 12.7907 18.7693 12.6813 18.6759C12.5513 18.5649 12.4774 18.4752 12.4418 18.4027C12.4143 18.3469 12.4054 18.2963 12.4285 18.2189C12.4568 18.1238 12.5431 17.9624 12.7794 17.7311L12.7795 17.7311C13.1612 17.3576 15.6783 14.9535 17.6446 13.0781L17.6451 13.0776C18.3455 12.4079 17.4628 11.3139 16.6602 11.8466L17.5742 21.9852ZM17.5742 21.9852C18.2105 22.4052 18.5261 22.4098 18.6783 22.3368M17.5742 21.9852L18.6783 22.3368M20.5948 13.0215C20.235 15.3612 19.7312 18.6371 19.3009 20.9521M20.5948 13.0215L19.3009 20.9521M19.3009 20.9521C19.2137 21.4213 19.1048 21.7545 18.9867 21.9814M19.3009 20.9521L18.9867 21.9814M18.9867 21.9814C18.8697 22.2061 18.7591 22.298 18.6783 22.3368M18.9867 21.9814L18.6783 22.3368" stroke="#311F2D"/>
</svg>
