<svg width="30" height="30" viewBox="0 0 30 30" fill="none" xmlns="http://www.w3.org/2000/svg">
<path d="M30 15C30 23.283 23.283 30 15 30C6.717 30 0 23.283 0 15C0 6.717 6.717 0 15 0C23.283 0 30 6.717 30 15Z" fill="url(#paint0_linear_113_4552)"/>
<path d="M23.3346 10.3914C23.3694 10.2768 23.3862 10.17 23.382 10.0752C23.3706 9.79978 23.181 9.59998 22.7358 9.59998H20.5536C20.0514 9.59998 19.8192 9.90418 19.6842 10.209C19.6842 10.209 18.444 12.762 17.0142 14.445C16.5504 14.9322 16.3152 15 16.0644 15C15.93 15 15.5904 14.7576 15.5904 14.3112V10.3704C15.5904 9.84298 15.459 9.59998 15.0342 9.59998H11.7642C11.4546 9.59998 11.3826 9.84298 11.3826 10.0872C11.3826 10.5942 11.9274 10.6752 12.0054 12.0954V14.8488C12.0054 15.5178 11.6748 15.6 11.424 15.6C10.7478 15.6 9.41585 13.3998 8.52485 10.4118C8.33045 9.82318 8.13725 9.59998 7.63505 9.59998H5.47625C4.89665 9.59998 4.80005 9.88438 4.80005 10.188C4.80005 10.7358 5.40605 13.6986 7.89485 17.1048C9.70025 19.575 12.078 21 14.1834 21C15.4584 21 15.5892 20.6754 15.5892 20.1684V18.1098C15.5898 17.5008 15.729 17.4 16.1352 17.4C16.425 17.4 17.0154 17.3898 18.1554 18.72C19.47 20.2536 19.7088 21 20.463 21H22.4526C22.9146 21 23.3718 20.8062 23.3826 20.43C23.385 20.334 23.3712 20.2272 23.34 20.1078C23.1918 19.6698 22.3236 18.6 21.48 17.58C21.0126 17.0154 20.5512 16.4562 20.3394 16.152C20.1972 15.9534 20.1432 15.8136 20.1504 15.6798C20.157 15.5394 20.2302 15.4056 20.3394 15.2184C20.3196 15.2184 23.0838 11.6082 23.3346 10.3914Z" fill="white"/>
<defs>
<linearGradient id="paint0_linear_113_4552" x1="15" y1="30" x2="15" y2="0" gradientUnits="userSpaceOnUse">
<stop stop-color="#155CDE"/>
<stop offset="0.278" stop-color="#1F7FE5"/>
<stop offset="0.569" stop-color="#279CEB"/>
<stop offset="0.82" stop-color="#2CAFEF"/>
<stop offset="1" stop-color="#2EB5F0"/>
</linearGradient>
</defs>
</svg>
