<svg width="30" height="30" viewBox="0 0 30 30" fill="none" xmlns="http://www.w3.org/2000/svg">
<path d="M29.5 15C29.5 23.0069 23.0069 29.5 15 29.5C6.99314 29.5 0.5 23.0069 0.5 15C0.5 6.99314 6.99314 0.5 15 0.5C23.0069 0.5 29.5 6.99314 29.5 15Z" stroke="#311F2D"/>
<path d="M22.8824 10.1153C22.8563 10.1082 22.8103 10.1 22.7358 10.1H20.5536C20.4137 10.1 20.3443 10.1387 20.3003 10.1751C20.2457 10.2204 20.193 10.2951 20.1414 10.4115L20.1378 10.4195L20.134 10.4275L19.6842 10.209C20.134 10.4275 20.134 10.4275 20.1339 10.4276L20.1338 10.4277L20.1336 10.4283L20.1327 10.43L20.1297 10.4362L20.1183 10.4594C20.1084 10.4795 20.0939 10.5087 20.075 10.5463C20.0372 10.6215 19.982 10.7302 19.9114 10.8655C19.7703 11.136 19.5672 11.5139 19.3187 11.9454C18.8245 12.8035 18.1393 13.893 17.3953 14.7687L17.3861 14.7795L17.3764 14.7897C17.1281 15.0505 16.9097 15.2334 16.6921 15.3478C16.4557 15.472 16.2499 15.5 16.0644 15.5C15.9043 15.5 15.7675 15.4372 15.6811 15.3866C15.5817 15.3285 15.4853 15.249 15.4005 15.152C15.2282 14.9548 15.0904 14.6684 15.0904 14.3112V10.3704C15.0904 10.2565 15.0831 10.1774 15.0726 10.1235C15.0709 10.1149 15.0692 10.1075 15.0677 10.101C15.0585 10.1004 15.0474 10.1 15.0342 10.1H11.883C11.8845 10.1198 11.8904 10.1416 11.9131 10.1854C11.9299 10.2179 11.9517 10.2544 11.9858 10.3101C11.9885 10.3146 11.9913 10.3192 11.9942 10.3239C12.0247 10.3738 12.0627 10.4359 12.1013 10.5049C12.2849 10.8334 12.4616 11.2829 12.5047 12.068L12.5054 12.0817V12.0954V14.8488C12.5054 15.2561 12.4049 15.6078 12.1461 15.8444C11.893 16.0756 11.5912 16.1 11.424 16.1C11.2074 16.1 11.018 16.0142 10.8719 15.9204C10.7216 15.824 10.5783 15.6943 10.444 15.549C10.1749 15.2579 9.89567 14.8543 9.62111 14.3749C9.07063 13.4136 8.50187 12.0826 8.04785 10.5619C7.95502 10.2824 7.88956 10.1845 7.84992 10.1466C7.84956 10.1463 7.84917 10.1459 7.84876 10.1455C7.83616 10.1333 7.80186 10.1 7.63505 10.1H5.47625C5.3868 10.1 5.33281 10.1094 5.30379 10.1173C5.30171 10.1333 5.30005 10.1562 5.30005 10.188C5.30005 10.3722 5.42691 11.1832 5.88238 12.3991C6.33049 13.5954 7.08338 15.1467 8.29853 16.8097L22.8824 10.1153ZM22.8824 10.1153C22.8811 10.1418 22.8748 10.1848 22.8562 10.2461L22.8496 10.268L22.8449 10.2904C22.8005 10.506 22.6211 10.896 22.325 11.409C22.0399 11.903 21.6794 12.4566 21.3226 12.9793C20.9666 13.5008 20.6184 13.9856 20.3596 14.341C20.2555 14.484 20.1662 14.6056 20.0964 14.7006C20.0794 14.7237 20.0636 14.7452 20.0491 14.7651C20.0122 14.8153 19.982 14.8566 19.9611 14.8857C19.9511 14.8995 19.9405 14.9145 19.9318 14.9274C19.9285 14.9322 19.9196 14.9454 19.9103 14.9611L19.9099 14.9616C19.9085 14.964 19.9043 14.971 19.8989 14.9813C19.8977 14.9833 19.8965 14.9853 19.8954 14.9873C19.8013 15.1481 19.665 15.381 19.6512 15.6529C19.6348 15.9564 19.7674 16.2113 19.931 16.4403C20.1586 16.7667 20.6362 17.3447 21.0947 17.8986C21.5169 18.4091 21.9386 18.924 22.2724 19.3642C22.4394 19.5844 22.5801 19.7803 22.6861 19.9437C22.7882 20.101 22.8408 20.2021 22.8613 20.2542C22.8757 20.3135 22.8814 20.3593 22.8826 20.3938C22.8753 20.3998 22.8635 20.4082 22.8457 20.4181C22.7646 20.4627 22.6232 20.5 22.4526 20.5H20.463C20.3139 20.5 20.1934 20.4595 19.902 20.1132C19.7861 19.9754 19.6609 19.8113 19.5051 19.6071C19.4599 19.5479 19.4122 19.4853 19.3613 19.419C19.1397 19.1299 18.8721 18.7878 18.5351 18.3946L22.8824 10.1153ZM15.0892 18.1098V18.1093C15.0894 17.9426 15.0987 17.7841 15.1279 17.6416C15.1573 17.4981 15.2129 17.3402 15.3283 17.2037C15.5747 16.9123 15.9327 16.9 16.1352 16.9H16.1365C16.313 16.9 16.6237 16.9 17.0507 17.1142C17.4574 17.3183 17.9403 17.7006 18.5351 18.3946L15.0892 18.1098ZM15.0892 18.1098V20.1684C15.0892 20.2813 15.0807 20.3345 15.0722 20.3614C15.0691 20.3713 15.0689 20.3713 15.0662 20.3731C15.0656 20.3735 15.0648 20.374 15.0638 20.3748C15.0153 20.4113 14.8165 20.5 14.1834 20.5C12.2931 20.5 10.0482 19.2037 8.29856 16.8098L15.0892 18.1098Z" stroke="#311F2D"/>
</svg>
